# xmcd
#
# Track frame offsets:
#	150
#	13759
#	32809
#	52601
#	75295
#	92323
#	109602
#	125031
#	147880
#	165786
#	189087
#	210525
#
# Disc length: 3063 seconds
#
# Revision: 1
# Processed by: cddbd v1.5.2PL0 Copyright (c) Steve Scherf et al.
# Submitted via: audiograbber 1.83.01
#
DISCID=800bf50c
DTITLE=Jens Lekman - Night Falls Over Kortedala
DYEAR=1900
DGENRE=
TTITLE0=And I Remember Every Kiss
TTITLE1=Sipping On the Sweet Nectar
TTITLE2=The Opposite of Hallelujah
TTITLE3=A Postcard to Nina
TTITLE4=Into Eternity
TTITLE5=I'm Leaving You Because I Don't Love You
TTITLE6=If I Could Cry (it would feel like this)
TTITLE7=Your Arms Around Me
TTITLE8=Shirin
TTITLE9=It Was a Strange Time in My Life
TTITLE10=Kanske Är Jag Kär I Dig 
TTITLE11=Friday Night at the Drive-In Bingo
EXTD=
EXTT0=
EXTT1=
EXTT2=
EXTT3=
EXTT4=
EXTT5=
EXTT6=
EXTT7=
EXTT8=
EXTT9=
EXTT10=
EXTT11=
PLAYORDER=
